<?xml version="1.0" encoding="utf-8"?>
<!-- Generator: Adobe Illustrator 22.0.0, SVG Export Plug-In . SVG Version: 6.00 Build 0)  -->
<svg version="1.1" id="レイヤー_1" xmlns="http://www.w3.org/2000/svg" xmlns:xlink="http://www.w3.org/1999/xlink" x="0px"
	 y="0px" viewBox="0 0 182.9 75.2" style="enable-background:new 0 0 182.9 75.2;" xml:space="preserve">
<style type="text/css">
	.st0{fill:#4B4B4B;}
	.st1{fill:none;stroke:#4B4B4B;stroke-width:7;stroke-miterlimit:10;}
	.st2{fill:#FFFFFF;stroke:#000000;stroke-miterlimit:10;}
	.st3{fill:none;stroke:#000000;stroke-width:7;stroke-miterlimit:10;}
</style>
<g>
	<path class="st0" d="M25.2,52.1c-1.1-2.5-0.9-5.5,0.2-8c1-2.5,2.7-4.7,4.6-6.7c0.9-1,2-1.9,3-2.7c1.1-0.8,2.1-1.6,3.2-2.4
		c1.1-0.7,2.2-1.5,3.3-2.2l1.7-1l1.8-1C52.4,23,63,20,73.8,19.4c1.3-0.1,2.7-0.1,4-0.1c1.3,0.1,2.7,0,4,0.1c2.7,0.2,5.4,0.4,8.2,1.2
		c1.4,0.4,2.8,1,4.1,1.8c1.3,0.8,2.5,1.9,3.5,3.3c1.8,2.7,2.4,5.8,2.6,8.6c0.3,5.7-1.1,11.5-3.9,16.5c-1.4,2.5-3.2,4.8-5.2,6.8
		c-0.5,0.5-1.1,1-1.6,1.5c-0.6,0.5-1.1,0.9-1.7,1.3l-1.8,1.2c-0.6,0.4-1.3,0.8-2,1.1c-1.4,0.7-3,1.2-4.8,1.3
		c-1.8,0.1-3.8-0.3-5.6-1.4c-1.7-1.1-2.9-2.9-3.5-4.6c-0.6-1.7-0.8-3.5-0.6-5.3c0.4-3.7,2.3-6.4,4.1-8.7c1.9-2.3,3.7-4.1,5.7-6
		c3.9-3.8,8.1-7.3,13-10.2c2.5-1.4,5.1-2.7,7.8-3.6c2.8-0.9,5.7-1.4,8.7-1.6c0.7,0,1.5,0,2.2,0l2.2,0.2c1.5,0.2,3.1,0.6,4.5,1.1
		c2.9,1.1,5.8,2.9,7.8,5.8c1,1.4,1.6,3.2,1.9,4.9c0.2,1.7,0.1,3.4-0.3,5c-0.8,3.1-2.2,5.5-3.4,7.8c-0.6,1.1-1.2,2.3-1.7,3.4
		c-0.2,0.6-0.5,1.1-0.6,1.6c-0.2,0.6-0.3,1-0.3,1.3c0,0.3,0,0.3,0.1,0.5c0.1,0.2,0.5,0.5,0.9,0.7c0.5,0.2,1,0.5,1.7,0.7l1.8,0.7
		c4.8,1.9,9.8,3.5,14.9,2.7l0.2,0.7c-2.5,0.9-5.3,1.2-8.1,1.1c-2.7-0.2-5.4-0.7-8-1.3c-0.7-0.2-1.3-0.3-1.9-0.5
		c-0.6-0.2-1.3-0.3-2.1-0.6c-0.7-0.3-1.6-0.7-2.3-1.4c-0.8-0.7-1.3-2-1.3-3c-0.1-1,0.1-1.9,0.3-2.6c0.2-0.7,0.4-1.4,0.6-2.1
		c0.5-1.4,1-2.6,1.5-3.9c1-2.4,2-4.8,2.4-6.8c0.4-2.1,0-3.8-1.1-5.2c-1.1-1.4-2.9-2.5-4.9-3.1c-1-0.3-2.1-0.5-3.2-0.6l-1.7-0.1
		c-0.6,0-1.1,0.1-1.7,0.1c-2.3,0.2-4.5,0.6-6.7,1.4c-2.2,0.8-4.4,1.8-6.5,3c-4.2,2.5-8.2,5.6-11.9,9c-1.9,1.7-3.9,3.5-5.4,5.2
		c-0.8,0.9-1.5,1.7-2,2.6c-0.3,0.4-0.5,0.9-0.6,1.3c-0.2,0.5-0.3,0.8-0.3,1.2c-0.1,0.8-0.1,1.8,0.2,2.5c0.2,0.8,0.6,1.3,1.1,1.7
		c0.5,0.3,1.1,0.6,1.9,0.5c0.8,0,1.8-0.3,2.8-0.7c0.5-0.2,1-0.4,1.5-0.7l1.5-0.9l1.4-1c0.4-0.4,0.9-0.7,1.3-1.2
		c1.7-1.6,3.3-3.5,4.5-5.5c2.5-4.1,3.9-8.9,3.7-13.7c0-2.4-0.5-4.7-1.6-6.4c-1.1-1.7-3-2.9-5.2-3.6c-2.2-0.8-4.8-1-7.3-1.3
		C80.3,23,79,23,77.7,22.9c-1.3,0-2.6-0.1-3.8,0C63.6,23,53.3,25.4,44,30l-1.7,0.9l-1.7,0.9c-1.1,0.6-2.2,1.3-3.3,2
		c-1.1,0.7-2.1,1.5-3.2,2.2c-1,0.8-2,1.6-3,2.4c-1.9,1.8-3.5,3.7-4.6,6c-1.1,2.3-1.4,4.9-0.5,7.3L25.2,52.1z"/>
</g>
<path class="st1" d="M149.8,59.8c-1.1,0.5,1.1,2,1.2,0.9"/>
</svg>
